<svg width="24" height="24" viewBox="0 0 24 24" fill="none" xmlns="http://www.w3.org/2000/svg">
<path d="M22.165 8.05876C21.6648 6.84252 20.65 5.52933 19.8554 5.11421C20.4221 6.22296 20.8154 7.41369 21.0214 8.64407L21.0234 8.66358C19.7217 5.38586 17.5152 4.06216 15.7121 1.18365C15.6209 1.03808 15.5297 0.892199 15.4409 0.738218C15.3901 0.650272 15.3494 0.57103 15.314 0.498092C15.2393 0.351781 15.1817 0.197155 15.1423 0.0373502C15.1424 0.029976 15.1398 0.0228403 15.1349 0.0173042C15.1301 0.0117681 15.1235 0.00821924 15.1162 0.0073345C15.1091 0.00536767 15.1016 0.00536767 15.0945 0.0073345C15.093 0.0073345 15.0907 0.0100359 15.0889 0.0106362C15.0871 0.0112365 15.0832 0.013938 15.0806 0.0151386L15.085 0.0073345C12.1932 1.71823 11.2114 4.88489 11.1223 6.46972C9.96705 6.54976 8.86249 6.97977 7.95274 7.70367C7.85786 7.62247 7.7587 7.54652 7.65569 7.47615C7.39338 6.54834 7.3822 5.56642 7.62331 4.63276C6.5613 5.15257 5.61765 5.8895 4.85209 6.7969H4.84674C4.39046 6.21249 4.42255 4.28548 4.44869 3.88297C4.3137 3.93778 4.18485 4.00691 4.0643 4.08918C3.6615 4.37965 3.28495 4.70559 2.93906 5.06319C2.54489 5.46699 2.18489 5.90344 1.86283 6.36797V6.36977V6.36767C1.12273 7.42771 0.597732 8.62537 0.318145 9.89152L0.302698 9.96836C0.281013 10.0707 0.202888 10.5834 0.189521 10.6947C0.189521 10.7034 0.187738 10.7115 0.186847 10.7203C0.086071 11.2495 0.023623 11.7855 0 12.324V12.384C0.00508805 15.2951 1.09007 18.0985 3.04076 20.2408C4.99144 22.3831 7.66608 23.7086 10.5367 23.9556C13.4073 24.2027 16.2653 23.3533 18.5464 21.5752C20.8275 19.7971 22.3661 17.2195 22.8583 14.3513C22.8776 14.2012 22.8934 14.0526 22.9106 13.901C23.1478 11.9206 22.891 9.9116 22.1638 8.05696L22.165 8.05876ZM8.89559 17.1655C8.94936 17.1916 8.99986 17.2199 9.05511 17.2448L9.06313 17.2499C9.00728 17.2229 8.95144 17.1947 8.89559 17.1655ZM21.0237 8.66688V8.65577L21.0258 8.66808L21.0237 8.66688Z" fill="url(#paint0_linear_550_119)"/>
<path d="M22.1665 8.0588C21.6663 6.84256 20.6516 5.52938 19.8569 5.11426C20.4236 6.22301 20.8169 7.41373 21.0229 8.64411V8.65521L21.025 8.66752C21.9125 11.2336 21.7841 14.047 20.6667 16.5196C19.3472 19.3804 16.1545 22.3127 11.155 22.1686C5.75458 22.014 0.995771 17.9634 0.107578 12.6596C-0.0543164 11.8231 0.107578 11.399 0.188971 10.7191C0.0779472 11.2472 0.0159897 11.7846 0.00390625 12.3243V12.3844C0.0089943 15.2955 1.09397 18.0988 3.04466 20.2411C4.99535 22.3834 7.66999 23.7089 10.5406 23.956C13.4112 24.203 16.2692 23.3537 18.5503 21.5756C20.8314 19.7975 22.37 17.2199 22.8622 14.3516C22.8815 14.2015 22.8973 14.0529 22.9145 13.9014C23.1517 11.9209 22.8949 9.91195 22.1677 8.0573L22.1665 8.0588Z" fill="url(#paint1_radial_550_119)"/>
<path d="M22.1665 8.0588C21.6663 6.84256 20.6516 5.52938 19.8569 5.11426C20.4236 6.22301 20.8169 7.41373 21.0229 8.64411V8.65521L21.025 8.66752C21.9125 11.2336 21.7841 14.047 20.6667 16.5196C19.3472 19.3804 16.1545 22.3127 11.155 22.1686C5.75458 22.014 0.995771 17.9634 0.107578 12.6596C-0.0543164 11.8231 0.107578 11.399 0.188971 10.7191C0.0779472 11.2472 0.0159897 11.7846 0.00390625 12.3243V12.3844C0.0089943 15.2955 1.09397 18.0988 3.04466 20.2411C4.99535 22.3834 7.66999 23.7089 10.5406 23.956C13.4112 24.203 16.2692 23.3537 18.5503 21.5756C20.8314 19.7975 22.37 17.2199 22.8622 14.3516C22.8815 14.2015 22.8973 14.0529 22.9145 13.9014C23.1517 11.9209 22.8949 9.91195 22.1677 8.0573L22.1665 8.0588Z" fill="url(#paint2_radial_550_119)"/>
<path d="M16.5658 9.4248C16.5907 9.44251 16.6139 9.46022 16.6373 9.47793C16.3482 8.95977 15.9882 8.48536 15.568 8.06869C11.9884 4.45179 14.6302 0.228576 15.0754 0.0124628L15.0799 0.00585938C12.1881 1.71676 11.2063 4.88342 11.1172 6.46825C11.2515 6.45895 11.3845 6.44754 11.5218 6.44754C12.5478 6.44955 13.5549 6.72602 14.4409 7.24885C15.3268 7.77169 16.06 8.52224 16.5658 9.4242V9.4248Z" fill="url(#paint3_radial_550_119)"/>
<path d="M11.5297 10.1475C11.5107 10.4369 10.4989 11.4349 10.1451 11.4349C6.87157 11.4349 6.33984 13.4361 6.33984 13.4361C6.48481 15.1211 7.64688 16.5097 9.05165 17.2421C9.11582 17.2757 9.18087 17.306 9.24593 17.3357C9.35861 17.3861 9.47129 17.4328 9.58398 17.4756C10.0661 17.648 10.571 17.7464 11.082 17.7676C16.8211 18.0396 17.9321 10.834 13.7909 8.74189C14.7677 8.61346 15.757 8.85617 16.5668 9.42295C16.061 8.52099 15.3279 7.77044 14.4419 7.2476C13.556 6.72477 12.5488 6.44829 11.5228 6.44629C11.3862 6.44629 11.2525 6.4577 11.1183 6.467C9.963 6.54703 8.85844 6.97705 7.94869 7.70095C8.12425 7.85103 8.32238 8.05153 8.73975 8.46725C9.521 9.24496 11.5246 10.0506 11.5291 10.1451L11.5297 10.1475Z" fill="url(#paint4_radial_550_119)"/>
<path d="M11.5297 10.1475C11.5107 10.4369 10.4989 11.4349 10.1451 11.4349C6.87157 11.4349 6.33984 13.4361 6.33984 13.4361C6.48481 15.1211 7.64688 16.5097 9.05165 17.2421C9.11582 17.2757 9.18087 17.306 9.24593 17.3357C9.35861 17.3861 9.47129 17.4328 9.58398 17.4756C10.0661 17.648 10.571 17.7464 11.082 17.7676C16.8211 18.0396 17.9321 10.834 13.7909 8.74189C14.7677 8.61346 15.757 8.85617 16.5668 9.42295C16.061 8.52099 15.3279 7.77044 14.4419 7.2476C13.556 6.72477 12.5488 6.44829 11.5228 6.44629C11.3862 6.44629 11.2525 6.4577 11.1183 6.467C9.963 6.54703 8.85844 6.97705 7.94869 7.70095C8.12425 7.85103 8.32238 8.05153 8.73975 8.46725C9.521 9.24496 11.5246 10.0506 11.5291 10.1451L11.5297 10.1475Z" fill="url(#paint5_radial_550_119)"/>
<path d="M7.41361 7.31682C7.50689 7.37685 7.58382 7.42908 7.65126 7.4762C7.38895 6.5484 7.37777 5.56647 7.61888 4.63281C6.55687 5.15262 5.61322 5.88955 4.84766 6.79695C4.9038 6.79545 6.57384 6.76513 7.41361 7.31682Z" fill="url(#paint6_radial_550_119)"/>
<path d="M0.1009 12.6604C0.989389 17.9642 5.7479 22.0163 11.1484 22.1694C16.1478 22.3123 19.3411 19.3797 20.66 16.5204C21.7775 14.0478 21.9058 11.2344 21.0183 8.6683V8.6572C21.0183 8.64849 21.0165 8.64339 21.0183 8.64609L21.0204 8.6656C21.4288 11.3601 20.0725 13.9694 17.9518 15.7373L17.9453 15.7523C13.8132 19.1531 9.85943 17.8036 9.06036 17.2531C9.00451 17.2261 8.94867 17.198 8.89282 17.1688C6.484 16.0054 5.48858 13.789 5.70246 11.886C5.13066 11.8945 4.56868 11.7353 4.08462 11.4276C3.60056 11.12 3.21519 10.6771 2.9752 10.1526C3.60757 9.76116 4.3286 9.53988 5.06959 9.50983C5.81058 9.47977 6.54684 9.64195 7.20822 9.98089C8.57149 10.6062 10.1227 10.6678 11.5304 10.1526C11.5259 10.058 9.52228 9.25211 8.74102 8.4747C8.32366 8.05898 8.12553 7.85878 7.94997 7.7084C7.85509 7.6272 7.75593 7.55124 7.65291 7.48088C7.58459 7.43376 7.50765 7.38273 7.41527 7.3215C6.5755 6.76981 4.90546 6.80012 4.85021 6.80162H4.84486C4.38858 6.21722 4.42067 4.29021 4.44681 3.8877C4.31182 3.94251 4.18297 4.01163 4.06242 4.0939C3.65962 4.38438 3.28307 4.71032 2.93718 5.06791C2.5416 5.47058 2.18011 5.90603 1.85649 6.3697C1.11639 7.42974 0.591395 8.6271 0.311808 9.89325C0.306164 9.91696 -0.10288 11.7239 0.0988202 12.661L0.1009 12.6604Z" fill="url(#paint7_radial_550_119)"/>
<path d="M15.57 8.06761C15.9903 8.48473 16.3503 8.95965 16.6394 9.47834C16.7027 9.52667 16.7618 9.57469 16.812 9.62122C19.4222 12.0525 18.0546 15.4893 17.9527 15.7324C20.073 13.9672 21.4282 11.3561 21.0212 8.66072C19.719 5.38 17.5101 4.0563 15.7099 1.17779C15.6187 1.03222 15.5275 0.886339 15.4387 0.732358C15.3879 0.644412 15.3472 0.565171 15.3119 0.492232C15.2371 0.345922 15.1795 0.191296 15.1402 0.0314909C15.1402 0.0241167 15.1376 0.0169809 15.1328 0.0114448C15.1279 0.00590876 15.1213 0.00235986 15.114 0.00147512C15.1069 -0.000491708 15.0994 -0.000491708 15.0923 0.00147512C15.0908 0.00147512 15.0885 0.00417654 15.0867 0.00477686C15.0849 0.00537717 15.081 0.00807859 15.0784 0.00927922C14.6331 0.222691 11.992 4.44861 15.5715 8.0625L15.57 8.06761Z" fill="url(#paint8_radial_550_119)"/>
<path d="M16.8101 9.62256C16.7599 9.57603 16.7008 9.52801 16.6376 9.47968C16.6141 9.46197 16.5909 9.44426 16.566 9.42655C15.7561 8.85977 14.7669 8.61706 13.79 8.7455C17.9309 10.8376 16.8199 18.0414 11.0811 17.7712C10.5702 17.75 10.0652 17.6516 9.5831 17.4792C9.47042 17.4366 9.35774 17.3899 9.24505 17.3393C9.18 17.3093 9.11494 17.2793 9.05078 17.2457L9.0588 17.2508C9.85907 17.8027 13.8117 19.1514 17.9437 15.75L17.9502 15.735C18.0533 15.4918 19.4209 12.055 16.8095 9.62376L16.8101 9.62256Z" fill="url(#paint9_radial_550_119)"/>
<path d="M6.34189 13.4348C6.34189 13.4348 6.87332 11.4337 10.1472 11.4337C10.5009 11.4337 11.5136 10.4356 11.5317 10.1463C10.1241 10.6615 8.57285 10.5999 7.20959 9.9746C6.5482 9.63565 5.81194 9.47348 5.07095 9.50353C4.32996 9.53359 3.60893 9.75487 2.97656 10.1463C3.21655 10.6708 3.60192 11.1137 4.08598 11.4213C4.57005 11.729 5.13202 11.8882 5.70382 11.8797C5.49053 13.7818 6.48567 15.9979 8.89418 17.1625C8.94795 17.1886 8.99845 17.2168 9.0537 17.2417C7.64774 16.5078 6.48685 15.1199 6.34189 13.4357V13.4348Z" fill="url(#paint10_radial_550_119)"/>
<path d="M22.1644 8.05876C21.6642 6.84252 20.6494 5.52933 19.8548 5.11421C20.4215 6.22297 20.8148 7.41369 21.0208 8.64407L21.0228 8.66358C19.7211 5.38586 17.5146 4.06216 15.7115 1.18365C15.6203 1.03808 15.5291 0.892199 15.4403 0.738218C15.3895 0.650272 15.3488 0.57103 15.3135 0.498092C15.2387 0.351781 15.1811 0.197155 15.1418 0.0373502C15.1418 0.029976 15.1392 0.0228403 15.1343 0.0173042C15.1295 0.0117681 15.1229 0.00821924 15.1156 0.0073345C15.1085 0.00536767 15.101 0.00536767 15.0939 0.0073345C15.0924 0.0073345 15.0901 0.0100359 15.0883 0.0106362C15.0865 0.0112365 15.0826 0.013938 15.08 0.0151386L15.0844 0.0073345C12.1926 1.71823 11.2108 4.88489 11.1217 6.46973C11.256 6.46042 11.3891 6.44901 11.5263 6.44901C12.5523 6.45102 13.5594 6.72749 14.4454 7.25033C15.3313 7.77316 16.0645 8.52371 16.5703 9.42568C15.7605 8.85889 14.7712 8.61618 13.7943 8.74462C17.9353 10.8367 16.8243 18.0405 11.0855 17.7704C10.5745 17.7491 10.0695 17.6507 9.58743 17.4783C9.47475 17.4357 9.36207 17.3891 9.24938 17.3384C9.18433 17.3084 9.11927 17.2784 9.05511 17.2448L9.06313 17.2499C9.00728 17.2229 8.95144 17.1948 8.89559 17.1655C8.94936 17.1917 8.99986 17.2199 9.05511 17.2448C7.64915 16.5106 6.48826 15.1227 6.3433 13.4388C6.3433 13.4388 6.87473 11.4376 10.1486 11.4376C10.5024 11.4376 11.515 10.4396 11.5331 10.1503C11.5287 10.0557 9.52505 9.24978 8.7438 8.47238C8.32644 8.05666 8.1283 7.85645 7.95274 7.70607C7.85786 7.62487 7.7587 7.54892 7.65569 7.47855C7.39338 6.55075 7.3822 5.56882 7.62331 4.63516C6.5613 5.15497 5.61765 5.8919 4.85209 6.7993H4.84674C4.39046 6.21489 4.42255 4.28788 4.44869 3.88537C4.3137 3.94018 4.18485 4.00931 4.0643 4.09158C3.6615 4.38205 3.28495 4.70799 2.93906 5.06559C2.54489 5.46939 2.18489 5.90585 1.86283 6.37037C1.12273 7.43042 0.597732 8.62777 0.318145 9.89392L0.302698 9.97076C0.281013 10.0731 0.183877 10.593 0.169915 10.7046C0.0810664 11.2413 0.024325 11.7829 0 12.3264V12.3864C0.00508805 15.2975 1.09007 18.1009 3.04076 20.2432C4.99144 22.3855 7.66608 23.711 10.5367 23.958C13.4073 24.2051 16.2653 23.3557 18.5464 21.5776C20.8275 19.7996 22.3661 17.2219 22.8583 14.3537C22.8776 14.2036 22.8934 14.055 22.9106 13.9034C23.1478 11.923 22.891 9.91401 22.1638 8.05936L22.1644 8.05876Z" fill="url(#paint11_linear_550_119)"/>
<defs>
<linearGradient id="paint0_linear_550_119" x1="20.6411" y1="3.72326" x2="1.33631" y2="22.1565" gradientUnits="userSpaceOnUse">
<stop offset="0.048" stop-color="#FFF44F"/>
<stop offset="0.111" stop-color="#FFE847"/>
<stop offset="0.225" stop-color="#FFC830"/>
<stop offset="0.368" stop-color="#FF980E"/>
<stop offset="0.401" stop-color="#FF8B16"/>
<stop offset="0.462" stop-color="#FF672A"/>
<stop offset="0.534" stop-color="#FF3647"/>
<stop offset="0.705" stop-color="#E31587"/>
</linearGradient>
<radialGradient id="paint1_radial_550_119" cx="0" cy="0" r="1" gradientUnits="userSpaceOnUse" gradientTransform="translate(19.903 2.70699) scale(24.002 24.2527)">
<stop offset="0.129" stop-color="#FFBD4F"/>
<stop offset="0.186" stop-color="#FFAC31"/>
<stop offset="0.247" stop-color="#FF9D17"/>
<stop offset="0.283" stop-color="#FF980E"/>
<stop offset="0.403" stop-color="#FF563B"/>
<stop offset="0.467" stop-color="#FF3750"/>
<stop offset="0.71" stop-color="#F5156C"/>
<stop offset="0.782" stop-color="#EB0878"/>
<stop offset="0.86" stop-color="#E50080"/>
</radialGradient>
<radialGradient id="paint2_radial_550_119" cx="0" cy="0" r="1" gradientUnits="userSpaceOnUse" gradientTransform="translate(10.9914 12.6122) scale(24.002 24.2527)">
<stop offset="0.3" stop-color="#960E18"/>
<stop offset="0.351" stop-color="#B11927" stop-opacity="0.74"/>
<stop offset="0.435" stop-color="#DB293D" stop-opacity="0.343"/>
<stop offset="0.497" stop-color="#F5334B" stop-opacity="0.094"/>
<stop offset="0.53" stop-color="#FF3750" stop-opacity="0"/>
</radialGradient>
<radialGradient id="paint3_radial_550_119" cx="0" cy="0" r="1" gradientUnits="userSpaceOnUse" gradientTransform="translate(13.9576 -2.69556) scale(17.3866 17.5682)">
<stop offset="0.132" stop-color="#FFF44F"/>
<stop offset="0.252" stop-color="#FFDC3E"/>
<stop offset="0.506" stop-color="#FF9D12"/>
<stop offset="0.526" stop-color="#FF980E"/>
</radialGradient>
<radialGradient id="paint4_radial_550_119" cx="0" cy="0" r="1" gradientUnits="userSpaceOnUse" gradientTransform="translate(8.31555 18.9151) scale(11.4277 11.5471)">
<stop offset="0.353" stop-color="#3A8EE6"/>
<stop offset="0.472" stop-color="#5C79F0"/>
<stop offset="0.669" stop-color="#9059FF"/>
<stop offset="1" stop-color="#C139E6"/>
</radialGradient>
<radialGradient id="paint5_radial_550_119" cx="0" cy="0" r="1" gradientUnits="userSpaceOnUse" gradientTransform="translate(12.1499 10.5299) rotate(-13.7282) scale(6.06345 7.16463)">
<stop offset="0.206" stop-color="#9059FF" stop-opacity="0"/>
<stop offset="0.278" stop-color="#8C4FF3" stop-opacity="0.064"/>
<stop offset="0.747" stop-color="#7716A8" stop-opacity="0.45"/>
<stop offset="0.975" stop-color="#6E008B" stop-opacity="0.6"/>
</radialGradient>
<radialGradient id="paint6_radial_550_119" cx="0" cy="0" r="1" gradientUnits="userSpaceOnUse" gradientTransform="translate(10.6931 1.80593) scale(8.22246 8.30836)">
<stop stop-color="#FFE226"/>
<stop offset="0.121" stop-color="#FFDB27"/>
<stop offset="0.295" stop-color="#FFC82A"/>
<stop offset="0.502" stop-color="#FFA930"/>
<stop offset="0.732" stop-color="#FF7E37"/>
<stop offset="0.792" stop-color="#FF7139"/>
</radialGradient>
<radialGradient id="paint7_radial_550_119" cx="0" cy="0" r="1" gradientUnits="userSpaceOnUse" gradientTransform="translate(17.2249 -3.59613) scale(35.0821 35.4486)">
<stop offset="0.113" stop-color="#FFF44F"/>
<stop offset="0.456" stop-color="#FF980E"/>
<stop offset="0.622" stop-color="#FF5634"/>
<stop offset="0.716" stop-color="#FF3647"/>
<stop offset="0.904" stop-color="#E31587"/>
</radialGradient>
<radialGradient id="paint8_radial_550_119" cx="0" cy="0" r="1" gradientUnits="userSpaceOnUse" gradientTransform="translate(14.3117 -1.63108) rotate(84.0378) scale(25.9743 16.8743)">
<stop stop-color="#FFF44F"/>
<stop offset="0.06" stop-color="#FFE847"/>
<stop offset="0.168" stop-color="#FFC830"/>
<stop offset="0.304" stop-color="#FF980E"/>
<stop offset="0.356" stop-color="#FF8B16"/>
<stop offset="0.455" stop-color="#FF672A"/>
<stop offset="0.57" stop-color="#FF3647"/>
<stop offset="0.737" stop-color="#E31587"/>
</radialGradient>
<radialGradient id="paint9_radial_550_119" cx="0" cy="0" r="1" gradientUnits="userSpaceOnUse" gradientTransform="translate(10.6908 4.80803) scale(21.8988 22.1276)">
<stop offset="0.137" stop-color="#FFF44F"/>
<stop offset="0.48" stop-color="#FF980E"/>
<stop offset="0.592" stop-color="#FF5634"/>
<stop offset="0.655" stop-color="#FF3647"/>
<stop offset="0.904" stop-color="#E31587"/>
</radialGradient>
<radialGradient id="paint10_radial_550_119" cx="0" cy="0" r="1" gradientUnits="userSpaceOnUse" gradientTransform="translate(16.3378 6.00892) scale(23.9693 24.2197)">
<stop offset="0.094" stop-color="#FFF44F"/>
<stop offset="0.231" stop-color="#FFE141"/>
<stop offset="0.509" stop-color="#FFAF1E"/>
<stop offset="0.626" stop-color="#FF980E"/>
</radialGradient>
<linearGradient id="paint11_linear_550_119" x1="20.4088" y1="3.62421" x2="3.97906" y2="19.8871" gradientUnits="userSpaceOnUse">
<stop offset="0.167" stop-color="#FFF44F" stop-opacity="0.8"/>
<stop offset="0.266" stop-color="#FFF44F" stop-opacity="0.634"/>
<stop offset="0.489" stop-color="#FFF44F" stop-opacity="0.217"/>
<stop offset="0.6" stop-color="#FFF44F" stop-opacity="0"/>
</linearGradient>
</defs>
</svg>
