<svg width="24" height="24" viewBox="0 0 24 24" fill="none" xmlns="http://www.w3.org/2000/svg">
<path d="M0 12C0 9.2071 0 7.81065 0.392817 6.68805C1.0964 4.67732 2.67732 3.0964 4.68805 2.39282C5.81065 2 7.2071 2 10 2H14C16.7929 2 18.1893 2 19.312 2.39282C21.3227 3.0964 22.9036 4.67732 23.6072 6.68805C24 7.81065 24 9.2071 24 12C24 14.7929 24 16.1893 23.6072 17.312C22.9036 19.3227 21.3227 20.9036 19.312 21.6072C18.1893 22 16.7929 22 14 22H10C7.2071 22 5.81065 22 4.68805 21.6072C2.67732 20.9036 1.0964 19.3227 0.392817 17.312C0 16.1893 0 14.7929 0 12Z" fill="#6663FF"/>
<path d="M9 15.4015C9 16.6761 10.3702 17.4363 11.3931 16.7293L16.3146 13.3278C17.2285 12.6961 17.2285 11.3039 16.3146 10.6722L11.3931 7.2707C10.3702 6.56369 9 7.32393 9 8.59851V15.4015Z" fill="white"/>
</svg>
