<svg width="24" height="24" viewBox="0 0 24 24" fill="none" xmlns="http://www.w3.org/2000/svg">
<path d="M12.0018 6.00014H22.3945C21.3414 4.17579 19.8264 2.66082 18.0019 1.60755C16.1775 0.554288 14.1078 -0.000146938 12.001 2.92105e-08C9.89425 0.000146996 7.82465 0.55487 6.00033 1.60839C4.176 2.66191 2.66126 4.1771 1.6084 6.00159L6.80473 15.0003L6.80938 14.9991C6.28077 14.0877 6.00182 13.0531 6.00064 11.9996C5.99945 10.946 6.27608 9.91082 6.80263 8.99825C7.32919 8.08568 8.08706 7.32803 8.99985 6.80167C9.91264 6.2753 10.9481 5.99884 12.0018 6.00014Z" fill="url(#paint0_linear_502_177)"/>
<path d="M12.0024 16.7502C14.6263 16.7502 16.7533 14.6235 16.7533 12.0001C16.7533 9.37669 14.6263 7.25 12.0024 7.25C9.37853 7.25 7.25146 9.37669 7.25146 12.0001C7.25146 14.6235 9.37853 16.7502 12.0024 16.7502Z" fill="#1A73E8"/>
<path d="M17.1951 15.002L11.9987 24.0007C14.1055 24.001 16.1752 23.4467 17.9997 22.3936C19.8243 21.3405 21.3393 19.8256 22.3926 18.0014C23.4458 16.1771 24.0001 14.1078 23.9998 12.0014C23.9994 9.89499 23.4443 7.82583 22.3904 6.00195H11.9978L11.9966 6.0066C13.0503 6.00457 14.086 6.28032 14.9991 6.80606C15.9123 7.3318 16.6706 8.08894 17.1978 9.00115C17.725 9.91337 18.0023 10.9484 18.0018 12.002C18.0013 13.0555 17.7231 14.0903 17.1951 15.002Z" fill="url(#paint1_linear_502_177)"/>
<path d="M6.80481 15.0017L1.60848 6.00293C0.554832 7.82696 7.85211e-05 9.89621 8.33495e-09 12.0026C-7.85045e-05 14.109 0.55452 16.1783 1.60803 18.0024C2.66154 19.8265 4.17683 21.3411 6.00153 22.394C7.82623 23.4469 9.89602 24.0009 12.0028 24.0003L17.1991 15.0016L17.1958 14.9982C16.6706 15.9115 15.914 16.6704 15.002 17.1982C14.09 17.726 13.055 18.0041 12.0013 18.0044C10.9476 18.0048 9.91237 17.7274 9.00005 17.2002C8.08774 16.673 7.33054 15.9147 6.80481 15.0017Z" fill="url(#paint2_linear_502_177)"/>
<defs>
<linearGradient id="paint0_linear_502_177" x1="1.6084" y1="7.50017" x2="22.3945" y2="7.50017" gradientUnits="userSpaceOnUse">
<stop stop-color="#D93025"/>
<stop offset="1" stop-color="#EA4335"/>
</linearGradient>
<linearGradient id="paint1_linear_502_177" x1="10.359" y1="23.8403" x2="20.7493" y2="5.84064" gradientUnits="userSpaceOnUse">
<stop stop-color="#FCC934"/>
<stop offset="1" stop-color="#FBBC04"/>
</linearGradient>
<linearGradient id="paint2_linear_502_177" x1="13.3008" y1="23.251" x2="2.91058" y2="5.2513" gradientUnits="userSpaceOnUse">
<stop stop-color="#1E8E3E"/>
<stop offset="1" stop-color="#34A853"/>
</linearGradient>
</defs>
</svg>
