<svg width="48" height="48" viewBox="0 0 48 48" fill="none" xmlns="http://www.w3.org/2000/svg">
<rect width="48" height="48" rx="10" fill="url(#paint0_linear_1993_59)"/>
<path d="M27.7671 33.4281C28.5349 34.1961 28.1217 35.5067 27.0552 35.704C27.0446 35.7054 27.0339 35.708 27.0232 35.7094C26.594 35.788 26.1487 35.6387 25.8395 35.3294L10.9544 20.4429C10.4732 19.9615 10.4252 19.2002 10.8438 18.6642C10.8491 18.6576 10.8544 18.6496 10.8611 18.6429C11.3557 18.0109 12.3008 17.9576 12.8674 18.5256L27.7671 33.4281ZM8.70419 21.9642C8.51357 22.3268 8.35626 22.6495 8.23762 22.9082C7.92168 23.6028 7.92168 24.3988 8.23762 25.0948C8.29228 25.2162 8.36293 25.3602 8.43358 25.5055L16.3187 33.3921C17.3611 34.4347 18.6622 35.1867 20.0953 35.5294C20.2099 35.5574 20.3259 35.5827 20.4432 35.608C21.1591 35.7627 21.6456 34.9094 21.1284 34.3921L8.70419 21.9642ZM39.6034 37.724C40.1246 38.2453 40.1246 39.088 39.6034 39.6093C39.3435 39.8693 39.0022 40 38.6609 40C38.3197 40 37.9784 39.8693 37.7185 39.6093L8.39092 10.2763C7.86969 9.75498 7.86969 8.91232 8.39092 8.391C8.91215 7.86967 9.75465 7.86967 10.2759 8.391L15.9654 14.0816C18.4156 12.7003 21.1137 12.0003 23.9972 12.0003C32.2515 12.0003 36.9546 17.6509 39.0222 21.0189C40.3259 23.1415 40.3259 25.7788 39.0222 27.9015C38.1797 29.2734 36.7853 31.1988 34.7857 32.9054L39.6034 37.724ZM17.9384 16.0549L20.3219 18.4389C22.9081 16.7282 26.4354 17.0109 28.7109 19.2869C30.9865 21.5642 31.2691 25.0908 29.5587 27.6775L32.8941 31.0134C34.7177 29.5001 35.9895 27.7468 36.752 26.5055C37.5265 25.2442 37.5265 23.6762 36.752 22.4148C34.975 19.5215 30.9545 14.6669 23.9985 14.6669C21.8403 14.6669 19.8073 15.1336 17.9384 16.0549ZM27.6058 25.7241C28.3136 24.2375 28.0537 22.4015 26.8259 21.1722C25.5969 19.9429 23.7599 19.6842 22.2748 20.3922L27.6071 25.7255L27.6058 25.7241Z" fill="white"/>
<defs>
<linearGradient id="paint0_linear_1993_59" x1="0" y1="0" x2="48" y2="48" gradientUnits="userSpaceOnUse">
<stop stop-color="#98E0FF"/>
<stop offset="1" stop-color="#009CF4"/>
</linearGradient>
</defs>
</svg>
