<svg width="48" height="48" viewBox="0 0 48 48" fill="none" xmlns="http://www.w3.org/2000/svg">
<rect width="48" height="48" rx="10" fill="url(#paint0_linear_1993_60)"/>
<path d="M29.0845 18.9067L28.6181 17.0133C28.4715 16.4267 27.9384 16 27.3253 16C26.7122 16 26.1791 16.4133 26.0325 17.0133L25.566 18.8933L23.7001 19.32C23.1004 19.4533 22.6739 19.9867 22.6739 20.6C22.6739 21.2133 23.0737 21.7467 23.6601 21.9067L25.566 22.4267L26.0458 24.3333C26.1924 24.92 26.7255 25.3467 27.3386 25.3467C27.9517 25.3467 28.4848 24.9333 28.6314 24.3333L29.0979 22.44L30.9904 21.9733C31.5768 21.8267 32.0033 21.2933 32.0033 20.68C32.0033 20.0667 31.5902 19.5333 30.9904 19.3867L29.0979 18.92L29.0845 18.9067ZM30.1374 14.5067L32.4831 15.4933L33.4161 17.8267C33.616 18.3333 34.1091 18.6667 34.6556 18.6667C35.202 18.6667 35.6951 18.3333 35.895 17.8267L36.828 15.5067L39.147 14.5733C39.6535 14.3733 39.9867 13.88 39.9867 13.3333C39.9867 12.7867 39.6535 12.2933 39.147 12.0933L36.828 11.16L35.895 8.84001C35.6951 8.33334 35.202 8.00001 34.6556 8.00001C34.1091 8.00001 33.616 8.33334 33.4161 8.84001L32.4965 11.1467L30.1908 12.0267C29.6843 12.2133 29.3378 12.7067 29.3244 13.2533C29.3244 13.8 29.631 14.2933 30.1374 14.5067ZM39.9867 20.2533V33.3333C39.9867 37.0133 37.0012 40 33.3228 40H14.6639C10.9854 40 8 37.0133 8 33.3333V14.6667C8 10.9867 10.9854 8.00001 14.6639 8.00001L27.7518 8C28.4848 8 29.0845 8.6 29.0845 9.33333C29.0845 10.0667 28.4848 10.6667 27.7518 10.6667L14.6639 10.6667C12.4648 10.6667 10.6656 12.4667 10.6656 14.6667V23.4533L11.4119 22.7067C13.1978 20.92 16.1166 20.92 17.9159 22.7067L25.3528 30.1467C26.0725 30.8667 27.2586 30.8667 27.9783 30.1467L28.7514 29.3733C30.5373 27.5867 33.4561 27.5867 35.2553 29.3733L37.3344 31.4533V20.2533C37.3344 19.52 37.9342 18.92 38.6672 18.92C39.4002 18.92 40 19.52 40 20.2533H39.9867ZM37.0012 34.8933L33.3494 31.24C32.6031 30.4933 31.3769 30.4933 30.6172 31.24L29.8442 32.0133C28.085 33.7733 25.2062 33.7733 23.4469 32.0133L16.01 24.5733C15.2636 23.8267 14.0375 23.8267 13.2778 24.5733L10.6389 27.2133V33.3333C10.6389 35.5333 12.4382 37.3333 14.6372 37.3333H33.2961C34.9488 37.3333 36.3615 36.3333 36.9746 34.8933H37.0012Z" fill="white"/>
<defs>
<linearGradient id="paint0_linear_1993_60" x1="0" y1="0" x2="48" y2="48" gradientUnits="userSpaceOnUse">
<stop stop-color="#C6BFFF"/>
<stop offset="1" stop-color="#604EFF"/>
</linearGradient>
</defs>
</svg>
