<svg width="100" height="84" viewBox="0 0 100 84" fill="none" xmlns="http://www.w3.org/2000/svg">
<g filter="url(#filter0_f_534_196)">
<path d="M45 4L96 12V80L45 72V4Z" fill="url(#paint0_linear_534_196)"/>
</g>
<rect x="0.5" y="2.5" width="71" height="71" rx="13.5" fill="white" stroke="#F0F2F6"/>
<path fill-rule="evenodd" clip-rule="evenodd" d="M52.9616 26.5338C54.104 29.0261 55.7747 37.2997 56.5606 41.4021C56.7951 42.6265 55.8537 43.75 54.6071 43.75H54.2C53.0954 43.75 52.2 44.6454 52.2 45.75V52.2233C52.2 54.9625 49.9956 57.2002 47.2565 57.176C45.8416 57.1635 44.5368 57.1324 44.0008 57.0645C41.3069 56.7245 39.1122 54.9626 37.4116 52.5769C36.5118 51.1801 36.0386 49.5948 35.997 47.8109C35.9397 45.3574 35.8982 43.0552 35.8773 40.9102C35.8722 40.3714 35.4457 39.9268 34.9048 39.9057C30.8275 39.7331 28.6588 35.2549 31.1811 32.0374C33.3654 29.2487 37.4376 29.6309 39.159 32.6859C39.5544 33.3868 39.6446 34.121 39.7325 34.8362C39.8722 35.9744 40.0061 37.0648 41.3537 37.8969C43.1323 38.9904 45.3842 38.2264 46.2215 36.3064C46.5648 35.5164 46.6636 34.6636 46.518 33.7377C46.0655 30.9126 44.8225 28.5163 42.7839 26.5439C39.8871 23.8813 36.5899 22.9081 32.8974 23.6247C26.9218 24.7864 22.6884 30.29 23.4945 36.5155C23.9366 39.9321 25.6528 42.3961 28.2323 44.5987C28.3779 44.7243 28.4664 44.8812 28.4924 45.0749C28.6172 45.9379 28.3155 46.5345 27.5823 46.8693C26.4849 47.3821 25.4188 46.3878 24.6959 45.6606C21.6535 42.6105 20.1609 39.0217 20.2285 34.899C20.4365 22.1704 34.8528 15.8245 44.5105 23.7869C47.7921 26.6801 49.498 30.3998 49.6384 34.9408C49.654 35.4381 50.0024 35.867 50.4861 35.9768C50.7149 36.0291 50.9542 35.9558 51.209 35.7624C51.3754 35.6368 51.4794 35.443 51.4794 35.2391C51.6926 29.0866 48.281 23.5043 43.1011 20.47C37.4792 17.582 32.008 17.6189 26.6877 20.5746C24.5814 21.7517 22.8132 23.3422 21.3934 25.3563C20.0985 27.1981 19.2091 29.3431 18.7255 31.7966C17.3577 38.7181 19.6824 44.4102 25.7048 48.8834C27.5926 49.0873 28.9344 48.6479 29.7301 47.5649C30.8795 45.9902 30.5622 43.9185 29.0125 42.7204C28.3728 42.2234 27.8319 41.6952 27.3898 41.1351C26.4589 39.9478 25.6996 38.2629 25.1223 36.0761C25.7152 28.7676 29.2313 25.2372 35.6437 25.5042C37.4588 25.5825 38.9041 26.0052 40.0223 26.7587C42.7943 28.6367 44.3285 31.2632 44.6353 34.6376C44.7289 35.6631 44.2765 36.2804 43.2727 36.4843C43.2101 36.4955 43.1475 36.5018 43.0848 36.5036C43.0018 36.5057 42.9189 36.4994 42.8359 36.4843C42.1078 36.3481 41.7229 35.9087 41.6865 35.1658C41.5097 31.7654 39.8403 29.5576 36.6783 28.5426C34.6968 27.9042 32.7985 28.2601 30.9731 29.6151C28.9448 31.1218 28.0451 33.2145 28.2687 35.888C28.794 39.0322 30.5987 40.973 33.6827 41.7001C33.9063 41.7528 34.0155 41.8939 34.0103 42.1241L33.9993 42.6281C33.924 45.9983 33.8335 50.0451 35.4873 52.8545C37.3223 55.9702 39.761 58.1449 43.324 58.5396C43.9816 58.6125 44.52 59.1405 44.52 59.8021C44.52 60.4637 43.9837 61 43.3221 61H28.32C26.6631 61 25.3535 59.6518 25.174 58.0047C24.8983 55.4748 24.1889 53.2652 22.6884 51.2692C22.4542 51.007 22.2166 50.7431 21.9776 50.4778C20.3425 48.6627 18.6416 46.7746 17.5345 44.8026C13.5404 37.6877 14.2685 28.3124 19.7084 22.144C26.0168 14.9871 35.5861 12.8266 44.3493 17.4094C48.2862 19.5544 51.157 22.594 52.9616 26.5338ZM33.3134 35.0352C33.355 35.9351 34.1455 36.6359 35.0816 36.5941C36.0126 36.5524 36.7407 35.7884 36.7043 34.8885C36.6626 33.9887 35.8722 33.2878 34.936 33.3296C34.0051 33.3714 33.277 34.1354 33.3134 35.0352Z" fill="url(#paint1_linear_534_196)"/>
<defs>
<filter id="filter0_f_534_196" x="41" y="0" width="59" height="84" filterUnits="userSpaceOnUse" color-interpolation-filters="sRGB">
<feFlood flood-opacity="0" result="BackgroundImageFix"/>
<feBlend mode="normal" in="SourceGraphic" in2="BackgroundImageFix" result="shape"/>
<feGaussianBlur stdDeviation="2" result="effect1_foregroundBlur_534_196"/>
</filter>
<linearGradient id="paint0_linear_534_196" x1="33.7614" y1="44.5" x2="93.5261" y2="53.2404" gradientUnits="userSpaceOnUse">
<stop stop-color="#989898"/>
<stop offset="1" stop-color="white" stop-opacity="0"/>
</linearGradient>
<linearGradient id="paint1_linear_534_196" x1="35.88" y1="15" x2="35.88" y2="61" gradientUnits="userSpaceOnUse">
<stop stop-color="#7CE0FF"/>
<stop offset="1" stop-color="#1681FF"/>
</linearGradient>
</defs>
</svg>
