<svg width="26" height="26" viewBox="0 0 26 26" fill="none" xmlns="http://www.w3.org/2000/svg">
<path fill-rule="evenodd" clip-rule="evenodd" d="M1.32604 12.7051C1.73811 12.9017 2.20126 13 2.71547 13C3.13811 13 3.50616 12.9376 3.81962 12.8129C4.1366 12.6843 4.39899 12.5161 4.60679 12.3081C4.81811 12.0964 4.98189 11.8696 5.09811 11.6276H5.16151V12.8242H7V6.99433C7 6.41588 6.90138 5.93384 6.70415 5.5482C6.51044 5.16257 6.25333 4.85822 5.93283 4.63516C5.61233 4.40832 5.25836 4.24575 4.87094 4.14745C4.48352 4.04915 4.09434 4 3.7034 4C3.13635 4 2.61862 4.09074 2.15019 4.27221C1.68176 4.44991 1.28553 4.71834 0.961509 5.0775C0.637484 5.43289 0.405031 5.87524 0.264151 6.40454L2.04981 6.67675C2.14491 6.37807 2.32805 6.11909 2.59925 5.89981C2.87396 5.68053 3.24553 5.57089 3.71396 5.57089C4.15774 5.57089 4.49761 5.68809 4.73358 5.92249C4.96956 6.1569 5.08755 6.48771 5.08755 6.91493V6.94896C5.08755 7.14556 5.01887 7.29112 4.88151 7.38563C4.74767 7.47637 4.53283 7.54442 4.23698 7.58979C3.94113 7.63138 3.55547 7.67864 3.08 7.73157C2.68553 7.77694 2.3034 7.85066 1.93358 7.95274C1.5673 8.05104 1.23799 8.1966 0.94566 8.38941C0.653333 8.58223 0.422641 8.83932 0.253585 9.16068C0.0845283 9.48204 0 9.88847 0 10.38C0 10.9509 0.117987 11.431 0.353962 11.8204C0.593459 12.2098 0.917484 12.5047 1.32604 12.7051ZM4.21057 11.2476C3.9288 11.4102 3.59597 11.4915 3.21208 11.4915C2.81409 11.4915 2.48654 11.3951 2.22943 11.2023C1.97233 11.0095 1.84377 10.724 1.84377 10.3459C1.84377 10.0813 1.90893 9.86578 2.03925 9.69943C2.16956 9.5293 2.34742 9.39697 2.57283 9.30246C2.79824 9.20794 3.05358 9.13989 3.33887 9.0983C3.46566 9.07939 3.61535 9.05671 3.78792 9.03025C3.9605 9.00378 4.13484 8.97354 4.31094 8.93951C4.48704 8.90548 4.64553 8.86578 4.78641 8.82042C4.93082 8.77505 5.03296 8.7259 5.09283 8.67297V9.69943C5.09283 10.0208 5.01535 10.3176 4.86038 10.5898C4.70893 10.862 4.49233 11.0813 4.21057 11.2476ZM9.34489 13L7 4H8.9937L10.4525 10.3281H10.5281L12.0194 4H13.9914L15.4827 10.293H15.5637L17.0009 4H19L16.6497 13H14.6128L13.0567 6.91797H12.9433L11.3872 13H9.34489ZM25.8243 6.4174L24.0677 6.62169C24.018 6.43253 23.9311 6.25473 23.8068 6.08827C23.6862 5.92182 23.5229 5.78752 23.3171 5.68537C23.1113 5.58323 22.8593 5.53216 22.5612 5.53216C22.1602 5.53216 21.8231 5.62484 21.5498 5.81021C21.2801 5.99559 21.147 6.23581 21.1506 6.5309C21.147 6.78436 21.234 6.99054 21.4114 7.14943C21.5924 7.30832 21.8905 7.43884 22.3057 7.54098L23.7004 7.85876C24.474 8.03657 25.0489 8.31841 25.4251 8.70429C25.8048 9.09016 25.9965 9.59521 26 10.2194C25.9965 10.768 25.8456 11.2522 25.5475 11.6721C25.253 12.0883 24.8431 12.4136 24.3179 12.6482C23.7926 12.8827 23.1894 13 22.508 13C21.5072 13 20.7016 12.7768 20.0913 12.3304C19.4809 11.8802 19.1171 11.2541 19 10.4521L20.8791 10.2591C20.9643 10.6526 21.1452 10.9496 21.4221 11.1501C21.6989 11.3506 22.0591 11.4508 22.5027 11.4508C22.9605 11.4508 23.3278 11.3506 23.6046 11.1501C23.8849 10.9496 24.0251 10.7018 24.0251 10.4067C24.0251 10.157 23.9346 9.95082 23.7536 9.78815C23.5762 9.62547 23.2994 9.50063 22.9232 9.41362L21.5285 9.10151C20.7442 8.92749 20.164 8.6343 19.7878 8.22194C19.4117 7.8058 19.2253 7.27995 19.2289 6.64439C19.2253 6.10719 19.362 5.64187 19.6388 5.24842C19.9191 4.8512 20.3077 4.54477 20.8046 4.32913C21.3049 4.10971 21.8816 4 22.5346 4C23.4928 4 24.2469 4.21753 24.797 4.65259C25.3506 5.08764 25.693 5.67591 25.8243 6.4174Z" fill="url(#paint0_linear_1388_79)"/>
<path fill-rule="evenodd" clip-rule="evenodd" d="M20.2944 16.0655C19.774 15.8599 19.1972 16.1472 19.0061 16.7071C18.8151 17.2669 19.0821 17.8874 19.6025 18.0929L22.6876 19.3113C15.8351 22.4085 8.17722 22.709 1.42478 19.3561C0.921403 19.1062 0.324989 19.3425 0.0926471 19.8841C-0.139694 20.4256 0.0800198 21.0672 0.583392 21.3171C7.85627 24.9283 16.1125 24.6337 23.4911 21.2908L22.38 24.5468C22.1889 25.1066 22.4559 25.7271 22.9764 25.9326C23.4968 26.1382 24.0736 25.8509 24.2647 25.291L25.8756 20.5702C26.2577 19.4505 25.7237 18.2095 24.6828 17.7985L20.2944 16.0655ZM23.9849 19.8436L23.9909 19.8259L23.9754 19.8198L23.9849 19.8436Z" fill="url(#paint1_linear_1388_79)"/>
<defs>
<linearGradient id="paint0_linear_1388_79" x1="0" y1="4" x2="26" y2="13" gradientUnits="userSpaceOnUse">
<stop stop-color="#8097BB"/>
<stop offset="1" stop-color="#27508F"/>
</linearGradient>
<linearGradient id="paint1_linear_1388_79" x1="0.5" y1="20" x2="25.9993" y2="25.9994" gradientUnits="userSpaceOnUse">
<stop stop-color="#FFBA68"/>
<stop offset="1" stop-color="#FB8700"/>
</linearGradient>
</defs>
</svg>
