<svg width="1920" height="460" viewBox="0 0 1920 460" fill="none" xmlns="http://www.w3.org/2000/svg">
<path d="M0 0H1920V460H0V0Z" fill="#6E3CFF"/>
<path d="M1850 124H1710C1676.86 124 1650 150.863 1650 184V324H1850V124Z" fill="#784BFF"/>
<path d="M1514 274C1514 262.954 1505.05 254 1494 254H1444V304C1444 315.046 1452.95 324 1464 324H1514V274Z" fill="#784BFF"/>
<rect width="136" height="136" transform="matrix(-1 0 0 1 1650 324)" fill="#784BFF"/>
<path d="M1850 324H1900C1911.05 324 1920 332.954 1920 344V394H1870C1858.95 394 1850 385.046 1850 374V324Z" fill="#784BFF"/>
<path fill-rule="evenodd" clip-rule="evenodd" d="M1792.97 216.452C1793.21 214.909 1793.33 213.332 1793.33 211.727C1793.33 193.653 1777.81 179 1758.67 179C1742.23 179 1728.46 189.805 1724.9 204.303C1723.25 203.811 1721.49 203.545 1719.67 203.545C1710.09 203.545 1702.33 210.872 1702.33 219.909C1702.33 221.562 1702.59 223.157 1703.08 224.661C1692.69 227.092 1685 235.948 1685 246.5C1685 258.237 1694.52 267.875 1706.67 268.908V269H1708.83H1786.83H1789V268.922C1803.54 267.878 1815 256.407 1815 242.409C1815 229.715 1805.58 219.098 1792.97 216.452Z" fill="#8C78FF"/>
<path fill-rule="evenodd" clip-rule="evenodd" d="M1787.19 229.679C1788.12 228.363 1787.74 226.585 1786.35 225.708C1784.95 224.831 1783.07 225.186 1782.14 226.502L1774.37 237.5H1732.67C1731 237.5 1729.64 238.782 1729.64 240.364C1729.64 241.945 1731 243.227 1732.67 243.227H1770.33L1764.81 251.047C1763.88 252.363 1764.25 254.141 1765.65 255.019C1767.04 255.896 1768.92 255.54 1769.85 254.224L1777.62 243.227H1797.67C1799.35 243.227 1800.71 241.945 1800.71 240.364C1800.71 238.782 1799.35 237.5 1797.67 237.5H1781.66L1787.19 229.679Z" fill="#784BFF"/>
<path d="M210 0H410V200H210V0Z" fill="#784BFF"/>
<path d="M410 200H458C467.941 200 476 208.059 476 218V266H428C418.059 266 410 257.941 410 248V200Z" fill="#784BFF"/>
<path d="M90 200H210V280C210 302.091 192.091 320 170 320H90V200Z" fill="#784BFF"/>
<path d="M0 110H70C81.0457 110 90 118.954 90 130V200H20C8.9543 200 0 191.046 0 180V110Z" fill="#784BFF"/>
<path d="M30.993 156.087V158.555L28.9153 159.681C29.2319 160.204 29.3856 160.806 29.3574 161.414C29.4054 162.126 29.2732 162.838 28.9724 163.488C28.6716 164.138 28.2117 164.705 27.6334 165.138C26.862 165.58 25.9848 165.812 25.0915 165.812C24.1983 165.812 23.321 165.58 22.5497 165.138C22.0661 164.926 21.6068 164.665 21.1793 164.359C21.141 164.53 21.141 164.707 21.1793 164.878C21.1793 165.138 21.4003 165.441 21.7982 165.831C22.2944 166.212 22.8457 166.519 23.4338 166.741C24.2419 167.071 25.088 167.304 25.9536 167.434C29.3574 167.997 31.0372 168.863 31.0372 171.765C31.0484 172.621 30.8397 173.466 30.4303 174.223C30.021 174.98 29.424 175.624 28.6943 176.095C27.6941 176.688 26.5476 177.001 25.3789 177.001C24.2102 177.001 23.0637 176.688 22.0634 176.095C19.9458 174.991 18.1736 173.345 16.9355 171.331C15.9325 169.877 15.3379 168.189 15.2115 166.438C15.2115 164.662 16.3167 165.008 18.5712 166.438C18.0877 165.842 17.6864 165.187 17.3776 164.489C17.084 163.936 16.9038 163.333 16.8471 162.713C16.8471 162.237 16.8471 161.977 17.245 161.847C17.7711 161.752 18.3103 161.752 18.8364 161.847C18.0706 160.874 16.5239 160.519 15.7073 158.642C15.2543 157.601 15.014 156.483 15 155.351C15 153.748 15.5747 153.099 16.6798 153.185C18.3546 153.539 21.2913 154.106 22.8149 154.874L24.0527 155.35L25.5557 155.913C27.3452 156.271 29.1836 156.33 30.993 156.087ZM19.6321 169.989C19.6824 170.551 19.9147 171.082 20.2952 171.505C20.8165 172.08 21.4471 172.551 22.1518 172.891C23.0799 173.397 24.1458 173.609 25.2021 173.497C25.9536 173.497 26.3514 172.977 26.3514 172.501C26.3301 172.295 26.2534 172.098 26.1292 171.931C26.0049 171.763 25.8375 171.631 25.6441 171.548L23.6548 170.768C22.9539 170.535 22.2738 170.245 21.6214 169.902C21.1912 169.651 20.7065 169.502 20.2068 169.469C19.6321 169.469 19.6321 169.642 19.6321 169.989ZM21.2677 159.248C21.1859 159.852 21.2945 160.466 21.5789 161.008C21.8633 161.55 22.31 161.994 22.8591 162.28C23.0193 162.414 23.2231 162.488 23.4338 162.488C23.6445 162.488 23.8484 162.414 24.0085 162.28C24.3181 161.82 24.4584 161.27 24.4063 160.721C24.4063 159.162 23.9201 158.295 22.8591 157.862C21.7982 157.429 21.2677 157.732 21.2677 159.248Z" fill="#784BFF"/>
<path d="M45.1389 153.792C45.2518 157.077 44.4511 160.328 42.8294 163.168C41.0775 165.991 38.4219 168.109 35.3131 169.162C34.4716 169.458 33.597 169.645 32.7097 169.719V165.694C33.45 165.689 34.1855 165.573 34.8932 165.352C36.5273 164.857 37.9858 163.891 39.0923 162.569C40.0494 161.347 40.6074 159.85 40.6879 158.288C40.422 158.917 40.0987 159.519 39.7221 160.086C39.3847 160.537 38.9892 160.941 38.5464 161.285C38.0061 161.683 37.4121 162.001 36.7828 162.226C36.1871 162.557 35.5038 162.685 34.8319 162.593C34.1599 162.5 33.5343 162.192 33.0457 161.713C32.5505 161.128 32.1763 160.448 31.9454 159.712C31.7145 158.976 31.6317 158.201 31.702 157.431C31.5656 155.561 32.1031 153.704 33.2136 152.208C34.5268 150.684 36.1841 149.509 38.0425 148.783C38.8154 148.277 39.6988 147.974 40.6143 147.899C41.5299 147.824 42.4493 147.981 43.2913 148.355C44.551 149.169 45.1389 150.967 45.1389 153.792ZM38.0425 152.808C37.4802 153.029 37.0069 153.436 36.6988 153.964C36.3369 154.615 36.1622 155.357 36.1949 156.104C36.1461 156.66 36.3118 157.213 36.6568 157.646C36.9508 157.945 37.3707 157.945 38.0005 157.646C38.5794 157.354 39.072 156.91 39.4282 156.361C39.8013 155.854 40.0071 155.24 40.0161 154.606C40.0421 154.298 40.0071 153.987 39.9134 153.693C39.8196 153.399 39.6689 153.127 39.4702 152.893C39.2688 152.733 39.0244 152.639 38.7694 152.624C38.5144 152.609 38.2609 152.673 38.0425 152.808Z" fill="#784BFF"/>
<path d="M58.6231 153.897C56.9758 153.973 55.3499 154.397 53.8118 155.149C52.1464 151.9 50.5117 148.924 48.8771 146.027C48.8771 147.906 48.8771 149.355 48.8771 150.334V156.781L45.793 159.13V143.247C47.3967 142.073 48.8771 140.859 50.6043 139.802C52.2389 142.699 53.9043 145.792 55.5389 149.238C55.5389 147.554 55.5389 146.145 55.5389 145.088V137.257C56.5411 136.879 57.5779 136.668 58.6231 136.631V153.897Z" fill="#784BFF"/>
<path d="M62.9801 147.148L62.7739 142.183L63.4009 142.15L71.2408 132.195L74.9994 132L66.7171 143.819L65.6957 143.872L62.9801 147.148ZM59.2637 151.646L59.5833 133.774L63.327 133.535L63.5717 151.422L59.2637 151.646ZM69.6135 151.142L64.1178 144.879L66.8624 141.805L73.3768 150.88L69.6135 151.142Z" fill="#784BFF"/>
<path d="M370 99.9158C369.997 99.0529 369.977 98.1945 369.938 97.3403V48.6394L356.515 62.1032C345.529 48.615 328.816 40 310.096 40C290.615 40 273.308 49.3268 262.367 63.7709L284.37 86.0718C286.526 82.072 289.589 78.6365 293.282 76.0418C297.124 73.0351 302.566 70.5768 310.095 70.5768C311.005 70.5768 311.707 70.6834 312.223 70.8842C321.551 71.6227 329.637 76.7864 334.398 84.281L318.824 99.9024C338.551 99.8247 360.836 99.7791 369.998 99.9124" fill="#8264FF"/>
<path d="M309.736 40.0068C308.875 40.0097 308.02 40.0296 307.168 40.0683H258.613L272.037 53.5321C258.589 64.5514 250 81.3147 250 100.091C250 119.631 259.299 136.99 273.699 147.964L295.933 125.895C291.946 123.732 288.52 120.66 285.933 116.955C282.936 113.102 280.485 107.643 280.485 100.092C280.485 99.1794 280.591 98.4753 280.791 97.9579C281.528 88.6014 286.676 80.4912 294.148 75.7158L309.722 91.3371C309.645 71.5507 309.599 49.1983 309.732 40.0086" fill="#876EFF"/>
<path d="M250 100.084C250.003 100.947 250.023 101.805 250.061 102.66V151.36L263.485 137.897C274.471 151.385 291.184 160 309.904 160C329.385 160 346.692 150.673 357.632 136.229L335.63 113.928C333.474 117.928 330.411 121.363 326.717 123.958C322.876 126.965 317.433 129.423 309.904 129.423C308.995 129.423 308.293 129.316 307.777 129.116C298.449 128.377 290.363 123.213 285.602 115.719L301.176 100.097C281.449 100.175 259.164 100.221 250.002 100.087" fill="#8C78FF"/>
<path fill-rule="evenodd" clip-rule="evenodd" d="M187 264.522V259.78H158.572C156.981 257.037 153.984 255.191 150.554 255.191C145.462 255.191 141.321 259.26 141.321 264.295C141.321 269.331 145.462 273.4 150.554 273.4C153.792 273.4 156.643 271.755 158.291 269.264H176.321C175.299 274.35 172.708 278.522 168.535 281.797C164.209 285.125 158.524 286.813 151.435 286.813C143.151 286.813 136.423 284.242 131.204 279.125C126.049 274.002 123.469 267.64 123.469 260C123.469 252.36 126.049 245.997 131.206 240.874L131.208 240.872C136.36 235.688 142.951 233.087 151.025 233.087C155.926 233.087 160.379 234.238 164.394 236.535L164.403 236.54C165.493 237.136 166.507 237.784 167.445 238.484L167.445 238.546C167.445 242.989 171.098 246.577 175.589 246.577C180.079 246.577 183.732 242.989 183.732 238.546C183.732 234.103 180.079 230.514 175.589 230.514C175.059 230.514 174.541 230.564 174.039 230.66C172.666 229.622 171.194 228.666 169.622 227.79C164.008 224.596 157.839 223 151.127 223C140.207 223 131.089 226.598 123.811 233.803C116.606 240.937 113 249.681 113 260C113 270.319 116.606 279.095 123.809 286.296L123.813 286.299C131.092 293.438 140.279 297 151.332 297C162.025 297 170.667 293.952 177.204 287.814L177.206 287.812C183.735 281.614 187 273.838 187 264.522Z" fill="#8C78FF"/>
<circle cx="150" cy="264" r="10" fill="#8C78FF"/>
<circle cx="150" cy="264" r="5" fill="#784BFF"/>
<path d="M1613 389.785C1615.88 388.358 1618.92 387.555 1622 387.41V354.668C1620.04 354.739 1618.11 355.138 1616.23 355.856V378.575C1613.17 372.041 1610.06 366.176 1607 360.682C1604.67 362.128 1602.58 363.729 1600.47 365.344C1599.65 365.968 1598.84 366.595 1598 367.215V397.335L1603.77 392.88V372.487C1606.83 377.98 1609.88 383.623 1613 389.785Z" fill="#8C78FF"/>
<path fill-rule="evenodd" clip-rule="evenodd" d="M1597.98 381.496C1598.2 387.513 1596.62 393.466 1593.41 398.67C1589.94 403.84 1584.68 407.719 1578.53 409.648C1576.86 410.191 1575.13 410.533 1573.38 410.668V403.297C1574.84 403.286 1576.3 403.075 1577.7 402.669C1580.93 401.764 1583.82 399.993 1586.01 397.572C1587.9 395.333 1589.01 392.591 1589.17 389.73C1588.64 390.882 1588 391.985 1587.26 393.024C1586.59 393.851 1585.81 394.589 1584.93 395.219C1583.86 395.95 1582.68 396.531 1581.44 396.945C1580.26 397.549 1578.91 397.785 1577.58 397.615C1576.25 397.446 1575.01 396.882 1574.04 396.004C1573.06 394.933 1572.32 393.686 1571.86 392.339C1571.41 390.991 1571.24 389.57 1571.38 388.162C1571.11 384.735 1572.18 381.334 1574.37 378.595C1576.97 375.803 1580.25 373.649 1583.93 372.321C1585.46 371.394 1587.21 370.838 1589.02 370.701C1590.84 370.564 1592.66 370.852 1594.32 371.537C1596.82 373.027 1597.98 376.32 1597.98 381.496ZM1583.93 379.692C1582.82 380.097 1581.88 380.842 1581.27 381.81C1580.56 383.002 1580.21 384.361 1580.28 385.731C1580.18 386.748 1580.51 387.761 1581.19 388.554C1581.77 389.103 1582.6 389.103 1583.85 388.554C1584.99 388.019 1585.97 387.207 1586.68 386.201C1587.41 385.272 1587.82 384.147 1587.84 382.986C1587.89 382.422 1587.82 381.853 1587.64 381.314C1587.45 380.775 1587.15 380.277 1586.76 379.849C1586.36 379.556 1585.88 379.384 1585.37 379.356C1584.87 379.328 1584.36 379.445 1583.93 379.692Z" fill="#8C78FF"/>
<path fill-rule="evenodd" clip-rule="evenodd" d="M1571.25 389.537V394.234L1567.45 396.377C1568.03 397.372 1568.31 398.518 1568.26 399.674C1568.35 401.028 1568.11 402.384 1567.56 403.621C1567.01 404.857 1566.16 405.936 1565.11 406.761C1563.7 407.601 1562.09 408.044 1560.46 408.044C1558.82 408.044 1557.22 407.601 1555.81 406.761C1554.92 406.358 1554.08 405.861 1553.3 405.278C1553.23 405.604 1553.23 405.941 1553.3 406.267C1553.3 406.761 1553.71 407.338 1554.43 408.08C1555.34 408.805 1556.35 409.388 1557.43 409.811C1558.9 410.439 1560.45 410.882 1562.03 411.129C1568.26 412.201 1571.33 413.849 1571.33 419.37C1571.35 421 1570.97 422.609 1570.22 424.049C1569.47 425.489 1568.38 426.714 1567.05 427.612C1565.22 428.739 1563.12 429.335 1560.98 429.335C1558.85 429.335 1556.75 428.739 1554.92 427.612C1551.05 425.51 1547.8 422.377 1545.54 418.547C1543.71 415.778 1542.62 412.566 1542.39 409.234C1542.39 405.855 1544.41 406.514 1548.53 409.234C1547.65 408.101 1546.91 406.854 1546.35 405.525C1545.81 404.474 1545.48 403.326 1545.38 402.146C1545.38 401.24 1545.38 400.745 1546.11 400.498C1547.07 400.318 1548.05 400.318 1549.02 400.498C1548.51 399.823 1547.8 399.304 1547.05 398.743C1545.73 397.769 1544.24 396.668 1543.29 394.4C1542.47 392.418 1542.03 390.29 1542 388.136C1542 385.087 1543.05 383.851 1545.07 384.016L1545.96 384.209C1549.09 384.888 1553.76 385.901 1556.29 387.229L1558.56 388.136L1561.31 389.207C1564.58 389.888 1567.94 390 1571.25 389.537ZM1550.47 415.992C1550.56 417.06 1550.99 418.071 1551.69 418.876C1552.64 419.971 1553.79 420.867 1555.08 421.513C1556.78 422.478 1558.73 422.881 1560.66 422.667C1562.03 422.667 1562.76 421.678 1562.76 420.771C1562.72 420.38 1562.58 420.005 1562.36 419.687C1562.32 419.631 1562.27 419.576 1562.23 419.524C1562.02 419.282 1561.76 419.089 1561.47 418.958L1557.83 417.475C1556.55 417.031 1555.3 416.479 1554.11 415.827C1553.32 415.348 1552.44 415.066 1551.52 415.003C1550.47 415.003 1550.47 415.332 1550.47 415.992ZM1553.46 395.553C1553.31 396.702 1553.51 397.871 1554.03 398.902C1554.55 399.933 1555.37 400.777 1556.37 401.322C1556.67 401.577 1557.04 401.718 1557.43 401.718C1557.67 401.718 1557.9 401.663 1558.12 401.56C1558.25 401.498 1558.37 401.418 1558.48 401.322C1559.04 400.446 1559.3 399.399 1559.2 398.355C1559.2 395.388 1558.32 393.74 1556.37 392.916C1554.43 392.091 1553.46 392.669 1553.46 395.553Z" fill="#8C78FF"/>
</svg>
