<svg width="100" height="84" viewBox="0 0 100 84" fill="none" xmlns="http://www.w3.org/2000/svg">
<g filter="url(#filter0_f_534_197)">
<path d="M45 4L96 12V80L45 72V4Z" fill="url(#paint0_linear_534_197)"/>
</g>
<rect x="0.5" y="2.5" width="71" height="71" rx="13.5" fill="white" stroke="#F0F2F6"/>
<path d="M37.3561 39.3553L32.9611 43.7502L30.2508 41.04L34.6458 36.6452C35.3953 35.8958 35.3953 34.6844 34.6458 33.935C33.8964 33.1856 32.6851 33.1856 31.9356 33.935L27.5406 38.3299L23.9391 34.7285C23.1897 33.9791 21.9783 33.9791 21.2289 34.7285C20.4795 35.4779 20.4795 36.6893 21.2289 37.4387L21.9036 38.1133L19.73 40.2887C16.3375 43.6793 15.9311 48.9424 18.5072 52.7833L13.5621 57.7283C12.8126 58.4777 12.8126 59.689 13.5621 60.4384C13.9358 60.8122 14.4265 61 14.9172 61C15.4079 61 15.8985 60.8122 16.2723 60.4384L21.2174 55.4935C22.8754 56.6051 24.7978 57.1629 26.7203 57.1629C29.2522 57.1629 31.7842 56.1988 33.7105 54.2707L35.886 52.0972L36.5606 52.7718C36.9344 53.1456 37.4251 53.3334 37.9157 53.3334C38.4064 53.3334 38.8971 53.1456 39.2709 52.7718C40.0203 52.0224 40.0203 50.8111 39.2709 50.0617L35.6694 46.4603L40.0644 42.0654C40.8138 41.316 40.8138 40.1047 40.0644 39.3553C39.3149 38.6059 38.1055 38.6059 37.3561 39.3553ZM58.4398 15.5621C57.6904 14.8126 56.4791 14.8126 55.7296 15.5621L50.7845 20.507C46.9434 17.931 41.6821 18.3374 38.2895 21.7298L36.114 23.9052L35.4374 23.2286C34.688 22.4792 33.4767 22.4792 32.7272 23.2286C31.9778 23.9781 31.9778 25.1894 32.7272 25.9388L48.0609 41.272C48.4346 41.6457 48.9253 41.8335 49.416 41.8335C49.9067 41.8335 50.3973 41.6457 50.7711 41.272C51.5205 40.5225 51.5205 39.3112 50.7711 38.5618L50.0945 37.8852L52.27 35.7098C55.6625 32.3193 56.0689 27.0562 53.4928 23.2152L58.4379 18.2703C59.1874 17.5209 59.1874 16.3095 58.4379 15.5601L58.4398 15.5621Z" fill="url(#paint1_linear_534_197)"/>
<defs>
<filter id="filter0_f_534_197" x="41" y="0" width="59" height="84" filterUnits="userSpaceOnUse" color-interpolation-filters="sRGB">
<feFlood flood-opacity="0" result="BackgroundImageFix"/>
<feBlend mode="normal" in="SourceGraphic" in2="BackgroundImageFix" result="shape"/>
<feGaussianBlur stdDeviation="2" result="effect1_foregroundBlur_534_197"/>
</filter>
<linearGradient id="paint0_linear_534_197" x1="33.7614" y1="44.5" x2="93.5261" y2="53.2404" gradientUnits="userSpaceOnUse">
<stop stop-color="#989898"/>
<stop offset="1" stop-color="white" stop-opacity="0"/>
</linearGradient>
<linearGradient id="paint1_linear_534_197" x1="36" y1="15" x2="36" y2="61" gradientUnits="userSpaceOnUse">
<stop stop-color="#DFBEFF"/>
<stop offset="1" stop-color="#A64EFF"/>
</linearGradient>
</defs>
</svg>
