<svg width="30" height="30" viewBox="0 0 30 30" fill="none" xmlns="http://www.w3.org/2000/svg">
<path fill-rule="evenodd" clip-rule="evenodd" d="M7 1H6V24H7H9H17C23.3513 24 28.5 18.8513 28.5 12.5C28.5 6.14873 23.3513 1 17 1H9H7ZM9 4V21H17C21.6944 21 25.5 17.1944 25.5 12.5C25.5 7.80558 21.6944 4 17 4H9Z" fill="url(#paint0_linear_3961_1408)"/>
<path fill-rule="evenodd" clip-rule="evenodd" d="M16.2424 26H17C18.0578 26 19.0823 25.8572 20.0552 25.5897C17.95 28.2748 14.6765 30 11 30H3H1H0V7H1H3V10V11V27H11C12.4476 27 13.8106 26.6382 15.0036 26H16.1939C16.21 26 16.2262 26 16.2424 26ZM19.4945 18.1913C19.332 13.6399 15.5911 10 11 10V7C16.5933 7 21.2189 10.7387 22.2517 16.0298C21.7117 16.782 20.3666 17.7469 19.4945 18.1913Z" fill="url(#paint1_linear_3961_1408)"/>
<defs>
<linearGradient id="paint0_linear_3961_1408" x1="23.5965" y1="2.98276" x2="6.40466" y2="22.758" gradientUnits="userSpaceOnUse">
<stop stop-color="#46C1F7"/>
<stop offset="1" stop-color="#08D8CA"/>
</linearGradient>
<linearGradient id="paint1_linear_3961_1408" x1="17.3412" y1="8.98276" x2="0.270111" y2="29.5003" gradientUnits="userSpaceOnUse">
<stop stop-color="#46C1F7"/>
<stop offset="1" stop-color="#08D8CA"/>
</linearGradient>
</defs>
</svg>
