<svg width="26" height="26" viewBox="0 0 26 26" fill="none" xmlns="http://www.w3.org/2000/svg">
<path d="M12.0174 3.83496L16.9685 8.54332L12.0174 13.2517L19.7676 20.622C20.647 21.4583 20.647 22.8324 19.7676 23.6687L17.9568 25.3908C17.1022 26.2035 15.7347 26.2035 14.88 25.3908L5.31908 16.2984C3.56031 14.6258 3.56031 11.8776 5.31908 10.2051L12.0174 3.83496Z" fill="url(#paint0_linear_1764_564)"/>
<path d="M20.3499 2.34105L18.5385 0.618362C17.6715 -0.206121 16.2658 -0.20612 15.3988 0.618362L12.0176 3.83391L16.9686 8.54229L20.3499 5.32675C21.2168 4.50228 21.2168 3.16552 20.3499 2.34105Z" fill="url(#paint1_linear_1764_564)"/>
<path d="M20.3499 11.7565L16.9686 8.54102L12.0176 13.2495L16.9686 17.9578L20.3499 14.7423C21.2168 13.9178 21.2168 12.581 20.3499 11.7565Z" fill="url(#paint2_linear_1764_564)"/>
<defs>
<linearGradient id="paint0_linear_1764_564" x1="12.2136" y1="3.83496" x2="17" y2="26" gradientUnits="userSpaceOnUse">
<stop stop-color="#A4A8FF"/>
<stop offset="1" stop-color="#4F57FF"/>
</linearGradient>
<linearGradient id="paint1_linear_1764_564" x1="19" y1="1.5" x2="14.5" y2="6" gradientUnits="userSpaceOnUse">
<stop stop-color="#6DE5FF"/>
<stop offset="1" stop-color="#04D2FF"/>
</linearGradient>
<linearGradient id="paint2_linear_1764_564" x1="20.5" y1="13.5" x2="12.5" y2="13" gradientUnits="userSpaceOnUse">
<stop stop-color="#75E6FF"/>
<stop offset="1" stop-color="#00D1FF"/>
</linearGradient>
</defs>
</svg>
