<svg width="26" height="26" viewBox="0 0 26 26" fill="none" xmlns="http://www.w3.org/2000/svg">
<rect width="26" height="26" rx="8" fill="url(#paint0_linear_872_702)"/>
<path d="M20.8002 13.0637V13.9662C20.8002 15.9287 20.1137 17.5618 18.7406 18.8653C17.3676 20.1546 15.5491 20.7992 13.285 20.7992C10.9479 20.7992 9.01255 20.0472 7.47885 18.543C5.95975 17.0246 5.2002 15.1766 5.2002 12.9992C5.2002 10.8218 5.95975 8.98104 7.47885 7.47691C9.01255 5.95845 10.9333 5.19922 13.2412 5.19922C14.6581 5.19922 15.9581 5.53586 17.1412 6.20914C18.3244 6.86809 19.2373 7.74192 19.88 8.83062L18.1272 9.84054C17.689 9.02401 17.0244 8.37222 16.1333 7.88517C15.2569 7.38379 14.2856 7.1331 13.2193 7.1331C11.4665 7.1331 10.0277 7.69894 8.903 8.83062C7.77829 9.94798 7.21593 11.3375 7.21593 12.9992C7.21593 14.6609 7.77829 16.0505 8.903 17.1678C10.0423 18.2852 11.5103 18.8438 13.3069 18.8438C14.8406 18.8438 16.0822 18.4786 17.0317 17.748C17.9811 17.0031 18.5581 16.0433 18.7626 14.8686H13.1317V13.0637H20.8002Z" fill="white"/>
<ellipse cx="13.1185" cy="13.9173" rx="1.86269" ry="1.83529" fill="white"/>
<ellipse cx="18.4716" cy="8.41155" rx="1.62985" ry="1.60588" fill="white"/>
<defs>
<linearGradient id="paint0_linear_872_702" x1="26" y1="26" x2="7.7486e-07" y2="-7.7486e-07" gradientUnits="userSpaceOnUse">
<stop stop-color="#5778E8"/>
<stop offset="1" stop-color="#8AA5FF"/>
</linearGradient>
</defs>
</svg>
