<svg width="26" height="26" viewBox="0 0 26 26" fill="none" xmlns="http://www.w3.org/2000/svg">
<path fill-rule="evenodd" clip-rule="evenodd" d="M0 6V20H4V6H0ZM6 6V20H9.8172V11.7044C9.8172 11.1945 9.91577 10.7506 10.1129 10.3727C10.31 9.98886 10.5759 9.69194 10.9104 9.482C11.2509 9.26607 11.6332 9.1581 12.0573 9.1581C12.6846 9.1581 13.1894 9.35904 13.5717 9.76092C13.96 10.1628 14.1541 10.7027 14.1541 11.3805V20H17.8548V11.5604C17.8548 10.8406 18.049 10.2618 18.4373 9.82391C18.8256 9.38003 19.3662 9.1581 20.0591 9.1581C20.6685 9.1581 20.9845 9.35004 21.3907 9.73393C21.7969 10.1178 22 10.6937 22 11.4614V20H26V10.7057C26 9.20608 25.5968 8.04841 24.7903 7.23265C23.9898 6.41088 22.9474 6 21.6631 6C20.6535 6 19.7784 6.23993 19.0376 6.71979C18.3029 7.19366 17.7951 7.82648 17.5143 8.61825H17.371C17.1499 7.81448 16.7079 7.17866 16.0448 6.7108C15.3817 6.23693 14.5783 6 13.6344 6C12.7025 6 11.902 6.23393 11.233 6.7018C10.5639 7.16966 10.086 7.80848 9.79928 8.61825H9.63799V6H6Z" fill="url(#paint0_linear_3849_726)"/>
<path d="M0 2C0 0.895431 0.895431 0 2 0C3.10457 0 4 0.895431 4 2C4 3.10457 3.10457 4 2 4C0.895431 4 0 3.10457 0 2Z" fill="#A0BEFF"/>
<path d="M22 24C22 22.8954 22.8954 22 24 22C25.1046 22 26 22.8954 26 24C26 25.1046 25.1046 26 24 26C22.8954 26 22 25.1046 22 24Z" fill="#B4C8FF"/>
<defs>
<linearGradient id="paint0_linear_3849_726" x1="0" y1="6" x2="26" y2="20" gradientUnits="userSpaceOnUse">
<stop stop-color="#4B78F0"/>
<stop offset="1" stop-color="#7DA0FF"/>
</linearGradient>
</defs>
</svg>
