<svg width="22" height="22" viewBox="0 0 22 22" fill="none" xmlns="http://www.w3.org/2000/svg">
<circle cx="11" cy="11" r="11" fill="url(#paint0_linear_969_583)"/>
<path fill-rule="evenodd" clip-rule="evenodd" d="M16.6642 9.08221L11.4795 14.3217C11.2673 14.5376 11.0148 14.7087 10.7367 14.8251C10.4586 14.9416 10.1603 15.001 9.85925 15H9.81921C9.51201 14.9952 9.20897 14.9276 8.92842 14.8011C8.64782 14.6746 8.39555 14.4919 8.18684 14.2641L5.3882 11.3205C5.26697 11.2069 5.17002 11.0694 5.10329 10.9166C5.03653 10.7637 5.00142 10.5987 5.00004 10.4316C4.99867 10.2645 5.03111 10.0989 5.09532 9.94494C5.15956 9.79098 5.25426 9.65191 5.37358 9.53625C5.4929 9.4206 5.63436 9.33081 5.78926 9.27238C5.94416 9.21395 6.10924 9.18813 6.27437 9.19649C6.4395 9.20485 6.60119 9.24722 6.74956 9.321C6.89789 9.39478 7.02977 9.49842 7.13703 9.62554L9.86047 12.4955L14.9432 7.34429C15.1721 7.12087 15.4787 6.99725 15.7969 7.00005C16.1151 7.00284 16.4195 7.13183 16.6445 7.35923C16.8695 7.58663 16.9972 7.89424 17 8.21582C17.0027 8.5374 16.8804 8.84721 16.6593 9.07853L16.6642 9.08221Z" fill="white"/>
<defs>
<linearGradient id="paint0_linear_969_583" x1="0" y1="0" x2="22" y2="22" gradientUnits="userSpaceOnUse">
<stop stop-color="#53F7AE"/>
<stop offset="1" stop-color="#12CB62"/>
</linearGradient>
</defs>
</svg>
