<svg width="26" height="26" viewBox="0 0 26 26" fill="none" xmlns="http://www.w3.org/2000/svg">
<path d="M25.2899 12.9737C25.6808 12.9769 25.999 12.6613 25.9985 12.2704L25.9875 3.07938C25.987 2.63387 25.448 2.41146 25.1335 2.72694L23.0775 4.78892C20.697 1.86655 17.0756 0 13.0193 0C8.79803 0 5.04787 2.02077 2.67725 5.15025L7.44481 9.98201C7.91203 9.1154 8.57577 8.37107 9.37607 7.80889C10.2084 7.15746 11.3877 6.62483 13.0191 6.62483C13.2162 6.62483 13.3683 6.64793 13.4801 6.69144C15.5014 6.85145 17.2535 7.97021 18.2851 9.59401L15.7657 12.1208C15.4508 12.4366 15.6757 12.9756 16.1217 12.9741C19.6103 12.9619 23.2514 12.9566 25.2899 12.9737Z" fill="url(#paint0_linear_872_807)"/>
<path d="M12.9359 0.709416C12.9392 0.318539 12.6236 0.000384907 12.2327 0.000854838L3.06896 0.0118715C2.62415 0.0124062 2.40143 0.549922 2.7155 0.864909L4.77499 2.93041C1.86112 5.31788 0 8.94985 0 13.018C0 17.2515 2.01492 21.0126 5.13527 23.3902L9.95297 18.6087C9.08888 18.1401 8.34671 17.4744 7.78617 16.6718C7.13667 15.837 6.60556 14.6543 6.60556 13.0181C6.60556 12.8205 6.62859 12.6679 6.67198 12.5558C6.83151 10.5286 7.94702 8.77142 9.5661 7.73677L12.082 10.26C12.3974 10.5764 12.9379 10.3518 12.9363 9.90501C12.9242 6.40547 12.9189 2.75326 12.9359 0.709416Z" fill="url(#paint1_linear_872_807)"/>
<path d="M0.709442 13.0254C0.318547 13.0221 0.000382703 13.3378 0.000849925 13.7287L0.0118352 22.9197C0.0123677 23.3652 0.551335 23.5876 0.865903 23.2721L2.92188 21.2101C5.30241 24.1325 8.92382 25.9991 12.9801 25.9991C16.953 25.9991 20.5086 24.2091 22.8895 21.3895C23.146 21.0858 23.115 20.6389 22.8357 20.3559L19.1246 16.5948C18.8413 16.3076 18.36 16.3771 18.1245 16.7047C17.711 17.2803 17.203 17.783 16.6233 18.1902C15.791 18.8416 14.6116 19.3742 12.9803 19.3742C12.7832 19.3742 12.631 19.3511 12.5193 19.3076C10.498 19.1476 8.7459 18.0289 7.71427 16.4051L10.2337 13.8783C10.5486 13.5624 10.3237 13.0234 9.87764 13.025C6.38904 13.0371 2.74802 13.0425 0.709442 13.0254Z" fill="url(#paint2_linear_872_807)"/>
<defs>
<linearGradient id="paint0_linear_872_807" x1="25.9985" y1="12.5357" x2="12.5342" y2="1.85714" gradientUnits="userSpaceOnUse">
<stop stop-color="#D3DDFF"/>
<stop offset="1" stop-color="#B4C4FF"/>
</linearGradient>
<linearGradient id="paint1_linear_872_807" x1="12.5357" y1="-0.000226867" x2="1.39286" y2="13.464" gradientUnits="userSpaceOnUse">
<stop stop-color="#98AFFF"/>
<stop offset="1" stop-color="#7C99FF"/>
</linearGradient>
<linearGradient id="paint2_linear_872_807" x1="-0.464285" y1="12.9997" x2="21.8214" y2="19.9639" gradientUnits="userSpaceOnUse">
<stop stop-color="#708FFA"/>
<stop offset="1" stop-color="#355CE7"/>
</linearGradient>
</defs>
</svg>
