<svg width="26" height="26" viewBox="0 0 26 26" fill="none" xmlns="http://www.w3.org/2000/svg">
<path d="M20.615 10.4521C20.5 7 17.1476 3 12.9867 3C8.93641 3 5.59937 6.10828 5 10C5.32693 9.94493 5.65386 9.92657 5.99895 9.92657C6.48934 9.92657 6.9434 9.98164 7.36114 10.0918C7.37931 10.0918 7.37931 10.0918 7.37931 10.0918C7.92419 7.46671 10.226 5.38643 12.9685 5.38643C15.8211 5.38643 18.163 8.33015 18.163 10.7458C18.1812 10.7642 18.1994 10.7825 18.2357 10.7825C18.9259 10.5989 19.725 10.4888 20.5242 10.5439C20.5968 10.5622 20.615 10.5255 20.615 10.4521Z" fill="url(#paint0_linear_4881_366)"/>
<path d="M9.62644 11.0791C8.55484 10.2714 7.35611 9.8125 6.01207 9.8125C4.32295 9.8125 2.81545 10.5101 1.72569 11.6482C-0.599132 14.053 -0.580969 17.908 1.8165 20.2761C2.77912 21.2307 3.94153 21.7447 5.17659 21.9282L7.50141 19.6336C7.11999 19.6336 6.59328 19.6152 6.10288 19.6152C4.74069 19.5785 3.92337 19.0462 3.4693 18.5689C2.01629 17.137 1.97996 14.7873 3.39665 13.3371C4.05051 12.6579 4.99496 12.2356 6.01207 12.2356C6.64776 12.2356 7.51957 12.4192 8.50035 13.2453C8.97258 13.6308 10.9733 15.5971 11.4273 16.001C11.4455 16.0193 11.4818 16.0193 11.5 16.001L13.1165 14.4039C13.1346 14.3855 13.1346 14.3305 13.1165 14.3305C12.3355 13.5778 10.2803 11.5748 9.62644 11.0791Z" fill="url(#paint1_linear_4881_366)"/>
<path d="M24.2653 11.6482C23.1755 10.5284 21.668 9.8125 19.9789 9.8125C18.5259 9.8125 17.2727 10.3265 16.1648 11.226C15.6744 11.6115 15.184 12.0704 14.5483 12.6946C14.2214 12.9883 5.14453 21.9229 5.14453 21.9229C5.63492 21.9963 6.28429 21.9833 6.88365 22.0017C7.42853 22.0017 17.8721 22.0017 18.308 22.0017C19.1798 22.0017 19.761 22.0017 20.3785 21.965C21.7952 21.8548 23.1211 21.3408 24.1927 20.2761C26.572 17.908 26.6083 14.053 24.2653 11.6482ZM22.5217 18.5689C22.0495 19.0278 21.2321 19.5602 19.8881 19.6152C19.2524 19.6336 18.5259 19.6336 18.1808 19.6336H10.8976C13.5312 17.0452 15.856 14.7689 16.1103 14.5119C16.3464 14.2733 16.8913 13.7593 17.3635 13.3371C18.3988 12.4192 19.3069 12.2173 19.9608 12.2356C20.9779 12.254 21.9042 12.6762 22.5762 13.3371C23.9929 14.7873 23.9747 17.137 22.5217 18.5689Z" fill="url(#paint2_linear_4881_366)"/>
<defs>
<linearGradient id="paint0_linear_4881_366" x1="19.9927" y1="9.81361" x2="6.50729" y2="9.18639" gradientUnits="userSpaceOnUse">
<stop stop-color="#358DFF"/>
<stop offset="1" stop-color="#01D0EF"/>
</linearGradient>
<linearGradient id="paint1_linear_4881_366" x1="12" y1="14.501" x2="7" y2="20.001" gradientUnits="userSpaceOnUse">
<stop stop-color="#00D8EC"/>
<stop offset="1" stop-color="#00A1FF"/>
</linearGradient>
<linearGradient id="paint2_linear_4881_366" x1="6" y1="21.001" x2="19.5" y2="10.501" gradientUnits="userSpaceOnUse">
<stop stop-color="#01A2FF"/>
<stop offset="1" stop-color="#3490FF"/>
</linearGradient>
</defs>
</svg>
