<svg width="26" height="26" viewBox="0 0 26 26" fill="none" xmlns="http://www.w3.org/2000/svg">
<path d="M23.075 12.2804C24.0101 11.8165 24.9985 11.5556 26 11.5082V0.867188C25.3646 0.890145 24.7343 1.01995 24.125 1.25323V8.63682C23.1312 6.51343 22.1187 4.60723 21.125 2.82163C20.3675 3.29157 19.6881 3.81187 19.0023 4.33703C18.7374 4.53984 18.4716 4.74338 18.2 4.94503V14.7339L20.075 13.2861V6.65826C21.0688 8.44375 22.0625 10.2776 23.075 12.2804Z" fill="url(#paint0_linear_1364_5)"/>
<path fill-rule="evenodd" clip-rule="evenodd" d="M18.1932 9.58633C18.2659 11.5418 17.7508 13.4767 16.7075 15.1678C15.5805 16.848 13.8721 18.1087 11.8721 18.7358C11.3307 18.9121 10.7681 19.0234 10.1972 19.0672V16.6715C10.6735 16.6681 11.1466 16.5994 11.6019 16.4676C12.6532 16.1733 13.5915 15.5979 14.3033 14.811C14.9191 14.0833 15.278 13.1922 15.3298 12.2624C15.1588 12.6368 14.9507 12.9951 14.7085 13.3328C14.4914 13.6015 14.237 13.8416 13.9521 14.0464C13.6045 14.2839 13.2224 14.4728 12.8176 14.6071C12.4344 14.8037 11.9947 14.8801 11.5625 14.825C11.1302 14.77 10.7277 14.5866 10.4134 14.3013C10.0948 13.9532 9.8541 13.5481 9.70557 13.1101C9.55703 12.6722 9.50371 12.2104 9.54894 11.7527C9.46118 10.6391 9.80697 9.53354 10.5214 8.64338C11.3662 7.73599 12.4324 7.03616 13.628 6.60441C14.1252 6.30321 14.6935 6.12241 15.2825 6.07798C15.8715 6.03355 16.463 6.12686 17.0047 6.34955C17.8151 6.83377 18.1932 7.9042 18.1932 9.58633ZM13.628 9.00012C13.2662 9.13162 12.9618 9.37389 12.7635 9.68831C12.5307 10.0758 12.4183 10.5175 12.4394 10.9626C12.408 11.2932 12.5146 11.6224 12.7365 11.8801C12.9256 12.0585 13.1958 12.0585 13.601 11.8801C13.9734 11.7063 14.2903 11.4425 14.5194 11.1155C14.7594 10.8136 14.8918 10.4478 14.8976 10.0705C14.9143 9.8871 14.8919 9.70238 14.8316 9.5273C14.7712 9.3521 14.6742 9.19023 14.5464 9.05112C14.4169 8.95579 14.2596 8.89983 14.0956 8.89073C13.9316 8.88163 13.7685 8.91982 13.628 9.00012Z" fill="url(#paint1_linear_1364_5)"/>
<path fill-rule="evenodd" clip-rule="evenodd" d="M9.50678 12.1996V13.7263L8.27174 14.4226C8.45994 14.746 8.5513 15.1184 8.53453 15.494C8.56309 15.9343 8.48444 16.3749 8.30564 16.7768C8.1269 17.1787 7.85348 17.5293 7.5097 17.7976C7.05119 18.0705 6.52973 18.2144 5.99875 18.2144C5.46777 18.2144 4.94631 18.0705 4.48779 17.7976C4.20035 17.6665 3.92729 17.5049 3.67318 17.3153C3.65043 17.4212 3.65043 17.5309 3.67318 17.6367C3.67318 17.7976 3.80457 17.985 4.04108 18.226C4.33608 18.4616 4.66373 18.6511 5.01333 18.7885C5.49368 18.9928 5.99668 19.1367 6.51116 19.2171C8.53453 19.5653 9.53307 20.101 9.53307 21.8955C9.53973 22.4252 9.41569 22.948 9.17231 23.4161C8.92898 23.8841 8.5741 24.2822 8.14039 24.574C7.54578 24.9403 6.8643 25.1339 6.16955 25.1339C5.47485 25.1339 4.79333 24.9403 4.19876 24.574C2.93997 23.891 1.88647 22.8727 1.15057 21.6277C0.554309 20.7279 0.200903 19.6841 0.125736 18.6011C0.125736 17.5029 0.782666 17.7171 2.12281 18.6011C1.83542 18.2328 1.59686 17.8275 1.41331 17.3957C1.23885 17.0542 1.13168 16.6811 1.09799 16.2976C1.09799 16.003 1.09799 15.8423 1.33449 15.7619C1.64722 15.7036 1.96777 15.7036 2.2805 15.7619C2.1144 15.5424 1.88647 15.3738 1.64039 15.1917C1.21209 14.8749 0.728711 14.5173 0.420426 13.78C0.151127 13.136 0.00830485 12.4445 0 11.7444C0 10.7535 0.34161 10.3516 0.998539 10.4052L1.28746 10.4681C2.30457 10.6888 3.82214 11.018 4.64548 11.4496L5.38123 11.7442L6.27466 12.0924C7.33837 12.3138 8.43122 12.35 9.50678 12.1996ZM2.75351 20.7973C2.78334 21.1447 2.92151 21.4732 3.14764 21.7348C3.45752 22.0908 3.8324 22.3818 4.25129 22.5919C4.80295 22.9054 5.43656 23.0364 6.06445 22.9669C6.51116 22.9669 6.74766 22.6455 6.74766 22.3508C6.73502 22.2235 6.68942 22.1018 6.61558 21.9983C6.60251 21.98 6.58866 21.9625 6.57406 21.9455C6.50608 21.8668 6.42187 21.804 6.32724 21.7616L5.14472 21.2795C4.72805 21.135 4.32376 20.9558 3.93597 20.7438C3.68027 20.5883 3.39213 20.4966 3.09512 20.4759C2.75351 20.4759 2.75351 20.5831 2.75351 20.7973ZM3.72576 14.1548C3.67709 14.5284 3.74163 14.9081 3.91074 15.2433C4.0798 15.5784 4.34534 15.8527 4.67172 16.0297C4.76693 16.1127 4.88807 16.1584 5.01333 16.1584C5.09151 16.1584 5.16805 16.1406 5.23766 16.1071C5.27966 16.0869 5.31912 16.0609 5.35494 16.0297C5.53902 15.745 5.62244 15.4049 5.59144 15.0655C5.59144 14.1012 5.30241 13.5656 4.67172 13.2977C4.04108 13.0298 3.72576 13.2174 3.72576 14.1548Z" fill="url(#paint2_linear_1364_5)"/>
<defs>
<linearGradient id="paint0_linear_1364_5" x1="27.7333" y1="2.16719" x2="-2.4427e-06" y2="22.9672" gradientUnits="userSpaceOnUse">
<stop stop-color="#02A0F5"/>
<stop offset="0.0001" stop-color="#0096E6"/>
<stop offset="1" stop-color="#35B9FF"/>
</linearGradient>
<linearGradient id="paint1_linear_1364_5" x1="27.7333" y1="2.16719" x2="-2.4427e-06" y2="22.9672" gradientUnits="userSpaceOnUse">
<stop stop-color="#02A0F5"/>
<stop offset="0.0001" stop-color="#0096E6"/>
<stop offset="1" stop-color="#35B9FF"/>
</linearGradient>
<linearGradient id="paint2_linear_1364_5" x1="27.7333" y1="2.16719" x2="-2.4427e-06" y2="22.9672" gradientUnits="userSpaceOnUse">
<stop stop-color="#02A0F5"/>
<stop offset="0.0001" stop-color="#0096E6"/>
<stop offset="1" stop-color="#35B9FF"/>
</linearGradient>
</defs>
</svg>
