<svg width="26" height="26" viewBox="0 0 26 26" fill="none" xmlns="http://www.w3.org/2000/svg">
<path fill-rule="evenodd" clip-rule="evenodd" d="M21.5949 11.4011C21.6422 11.0743 21.6667 10.7401 21.6667 10.4001C21.6667 6.57096 18.5625 3.4668 14.7333 3.4668C11.4451 3.4668 8.69156 5.75583 7.97916 8.82734C7.64916 8.72305 7.29782 8.6668 6.93333 8.6668C5.01875 8.6668 3.46667 10.2189 3.46667 12.1335C3.46667 12.4836 3.51857 12.8216 3.6151 13.1402C1.53889 13.6552 0 15.5313 0 17.7668C0 20.2533 1.90385 22.2951 4.33333 22.514V22.5335H4.76667H20.3667H20.8V22.517C23.7087 22.2958 26 19.8655 26 16.9001C26 14.2108 24.1155 11.9616 21.5949 11.4011Z" fill="url(#paint0_linear_872_692)"/>
<path fill-rule="evenodd" clip-rule="evenodd" d="M20.2708 13.3617C20.5495 13.5476 20.6249 13.9242 20.439 14.203L16.9723 19.403C16.7865 19.6818 16.4098 19.7571 16.1311 19.5713C15.8523 19.3854 15.7769 19.0088 15.9628 18.73L19.4295 13.53C19.6153 13.2512 19.992 13.1759 20.2708 13.3617Z" fill="white"/>
<path fill-rule="evenodd" clip-rule="evenodd" d="M8.92822 16.466C8.92822 16.131 9.19984 15.8594 9.53489 15.8594H22.5349C22.8699 15.8594 23.1416 16.131 23.1416 16.466C23.1416 16.8011 22.8699 17.0727 22.5349 17.0727H9.53489C9.19984 17.0727 8.92822 16.8011 8.92822 16.466Z" fill="white"/>
<defs>
<linearGradient id="paint0_linear_872_692" x1="3.46667" y1="9.53346" x2="24.7" y2="19.9335" gradientUnits="userSpaceOnUse">
<stop stop-color="#F8A32F"/>
<stop offset="0.0001" stop-color="#FFB756"/>
<stop offset="1" stop-color="#E17216"/>
</linearGradient>
</defs>
</svg>
